PathFileType   4   (X/Y/Z)
DataRate	CameraRate	NumFrames	NumMarkers	Units	OrigDataRate	OrigDataStartFrame	OrigNumFrames
120.0	120.0	9	37	mm	120.0	140	186
Frame#	Time	midhip	hip_r	hip_l	knee_r	knee_l	ankle_r	ankle_l	midasis	asis_r	asis_l	psis_r	psis_l	epicondLat_r	epicondLat_l	epicondMed_r	epicondMed_l	malleolusLat_r	malleolusLat_l	malleolusMedv_r	malleolusMedv_l	neck	subclavicle_r	subclavicle_l	sternalnotch	xyphoidprocess	thighwand_r	thighwand_l	upperleg1_r	upperleg1_l	upperleg2_r	upperleg2_l	shankwand_r	shankwand_l	lowerleg1_r	lowerleg1_l	toe_r	toe_l
 	 	X1	Y1	Z1	X2	Y2	Z2	X3	Y3	Z3	X4	Y4	Z4	X5	Y5	Z5	X6	Y6	Z6	X7	Y7	Z7	X8	Y8	Z8	X9	Y9	Z9	X10	Y10	Z10	X11	Y11	Z11	X12	Y12	Z12	X13	Y13	Z13	X14	Y14	Z14	X15	Y15	Z15	X16	Y16	Z16	X17	Y17	Z17	X18	Y18	Z18	X19	Y19	Z19	X20	Y20	Z20	X21	Y21	Z21	X22	Y22	Z22	X23	Y23	Z23	X24	Y24	Z24	X25	Y25	Z25	X26	Y26	Z26	X27	Y27	Z27	X28	Y28	Z28	X29	Y29	Z29	X30	Y30	Z30	X31	Y31	Z31	X32	Y32	Z32	X33	Y33	Z33	X34	Y34	Z34	X35	Y35	Z35	X36	Y36	Z36	X37	Y37	Z37

	140	1.58333	1978.753	897.661	-237.452	1979.765	874.088	-166.221	1970.780	879.732	-316.276	2014.292	470.255	-183.124	2080.356	472.575	-318.968	1957.742	68.574	-213.541	1888.777	128.436	-326.043	2062.179	963.279	-243.204	2069.272	958.824	-124.750	2055.086	967.734	-361.659	1878.073	1004.575	-198.267	1876.087	1003.392	-283.905	2027.098	468.962	-126.057	2081.114	473.162	-376.960	1977.220	474.636	-235.830	2086.508	447.905	-264.001	1951.900	66.404	-174.029	1868.600	140.310	-357.233	1964.378	83.344	-242.773	1902.342	138.423	-299.665	1882.365	1429.425	-208.696	2008.905	1344.658	-167.219	2011.781	1350.875	-272.391	1993.605	1356.450	-216.837	2066.728	1189.440	-236.472	2069.567	564.934	-51.602	2218.062	582.563	-331.630	2072.728	634.287	-112.292	2135.736	617.208	-366.654	2067.722	550.117	-143.872	2134.196	528.422	-361.892	2003.496	186.187	-82.039	1944.977	258.833	-440.158	1975.870	161.949	-154.338	1919.789	228.197	-368.989	2081.822	38.449	-205.582	1977.429	55.467	-353.526
	141	1.59167	1981.895	898.141	-237.791	1982.284	873.847	-166.136	1973.338	879.784	-316.181	2015.453	470.031	-183.263	2086.693	473.401	-318.590	1957.616	68.657	-213.756	1904.254	124.174	-326.163	2064.717	963.189	-242.922	2071.777	958.503	-124.497	2057.656	967.875	-361.347	1880.695	1004.425	-198.081	1878.648	1003.335	-283.886	2028.450	468.680	-126.241	2087.474	473.963	-376.582	1979.366	473.725	-235.699	2093.715	448.247	-264.063	1951.938	66.472	-174.222	1883.893	135.490	-357.442	1963.827	83.287	-243.149	1918.005	134.588	-299.893	1885.653	1429.351	-208.605	2011.811	1344.682	-167.220	2015.074	1350.690	-271.816	1996.873	1356.336	-216.603	2069.741	1189.280	-235.709	2071.466	564.595	-51.911	2222.872	584.754	-331.207	2073.931	633.862	-112.338	2140.320	618.515	-365.991	2069.528	550.004	-143.864	2140.160	530.108	-361.619	2004.267	185.925	-82.356	1957.418	255.919	-440.198	1976.488	161.830	-154.321	1933.171	224.940	-369.356	2081.807	38.483	-205.609	1995.619	54.612	-353.900
	142	1.60000	1984.288	897.800	-238.004	1984.812	873.572	-166.086	1975.907	879.806	-316.122	2016.582	469.782	-183.426	2092.824	474.174	-318.241	1957.433	68.668	-213.942	1919.895	120.062	-326.283	2067.255	963.078	-242.672	2074.284	958.157	-124.247	2060.226	967.999	-361.097	1883.331	1004.215	-197.894	1881.272	1003.232	-283.803	2029.760	468.372	-126.447	2093.658	474.717	-376.232	1980.003	473.293	-235.089	2101.335	448.152	-264.152	1951.922	66.471	-174.384	1899.359	130.804	-357.650	1963.632	83.264	-243.323	1933.064	131.051	-299.961	1889.398	1429.299	-208.634	2015.006	1344.723	-166.883	2018.364	1350.479	-271.648	2000.137	1356.193	-216.372	2072.700	1189.051	-235.030	2073.350	564.247	-52.182	2227.552	586.880	-330.734	2075.730	633.374	-112.748	2144.772	619.687	-365.152	2070.900	549.661	-143.914	2146.251	531.500	-361.266	2005.007	185.673	-82.649	1969.894	253.079	-440.252	1977.322	161.746	-154.396	1946.761	221.495	-369.563	2081.809	38.551	-205.602	2013.783	53.883	-354.101
	143	1.60833	1987.028	897.639	-237.973	1987.355	873.283	-166.069	1978.498	879.795	-316.096	2017.705	469.516	-183.606	2098.771	474.886	-317.917	1957.204	68.607	-214.096	1935.685	116.114	-326.394	2069.798	962.955	-242.460	2076.790	957.815	-124.015	2062.805	968.096	-360.905	1885.971	1003.953	-197.711	1883.932	1003.087	-283.669	2031.047	468.046	-126.666	2099.687	475.418	-375.908	1979.864	473.514	-234.840	2106.299	448.614	-264.525	1951.852	66.404	-174.516	1914.974	126.272	-357.840	1963.558	83.216	-243.386	1947.865	127.406	-299.807	1893.022	1429.256	-208.458	2018.270	1344.453	-166.455	2021.900	1350.125	-271.715	2003.405	1356.050	-216.142	2075.741	1188.585	-234.568	2075.208	563.900	-52.415	2232.106	588.927	-330.214	2077.922	632.930	-113.185	2149.370	620.720	-364.696	2072.038	548.891	-144.343	2151.201	532.538	-361.154	2005.699	185.440	-82.914	1982.373	250.336	-440.304	1978.077	161.680	-154.543	1959.199	218.053	-369.656	2081.816	38.644	-205.573	2031.892	53.285	-354.135
	144	1.61667	1990.142	897.729	-237.756	1989.910	873.002	-166.072	1981.107	879.747	-316.092	2018.846	469.251	-183.792	2104.569	475.538	-317.615	1956.944	68.491	-214.221	1951.601	112.340	-326.480	2072.344	962.828	-242.290	2079.296	957.501	-123.819	2065.392	968.155	-360.761	1888.603	1003.659	-197.537	1886.637	1002.908	-283.497	2032.330	467.720	-126.888	2105.583	476.066	-375.604	1980.255	473.438	-234.605	2109.743	449.591	-264.971	1951.739	66.288	-174.622	1930.713	121.907	-357.994	1963.086	83.083	-243.466	1962.429	123.606	-299.812	1896.209	1429.278	-207.988	2021.621	1344.070	-166.047	2025.247	1349.888	-271.295	2006.695	1355.909	-215.932	2078.881	1188.225	-234.387	2077.044	563.568	-52.617	2236.531	590.872	-329.667	2080.201	632.641	-113.653	2153.890	621.944	-364.383	2073.387	547.922	-144.759	2155.363	533.588	-361.130	2006.343	185.225	-83.146	1994.833	247.702	-440.334	1978.599	161.317	-154.848	1972.009	215.024	-369.681	2081.808	38.751	-205.537	2049.924	52.829	-354.020
	145	1.62500	1992.814	897.378	-237.437	1992.480	872.747	-166.075	1983.725	879.670	-316.090	2020.029	468.997	-183.981	2110.253	476.141	-317.323	1956.677	68.342	-214.327	1967.616	108.751	-326.522	2074.896	962.707	-242.156	2081.812	957.238	-123.659	2067.981	968.175	-360.653	1891.226	1003.360	-197.378	1889.384	1002.708	-283.309	2033.634	467.403	-127.107	2111.369	476.668	-375.310	1983.024	472.092	-234.541	2115.418	450.981	-264.012	1951.605	66.144	-174.711	1946.547	117.721	-358.091	1962.851	82.871	-243.508	1977.493	120.277	-299.976	1899.371	1429.301	-207.700	2025.037	1344.022	-165.812	2028.127	1349.866	-270.839	2010.004	1355.785	-215.767	2081.967	1188.201	-234.376	2078.870	563.255	-52.800	2240.816	592.698	-329.115	2081.798	632.427	-114.055	2157.581	623.261	-364.274	2075.523	547.455	-144.823	2160.162	535.103	-360.542	2006.955	185.010	-83.341	2007.263	245.182	-440.327	1978.877	160.546	-155.227	1986.212	211.632	-369.209	2081.773	38.857	-205.509	2067.865	52.524	-353.780
	146	1.63333	1995.300	896.906	-237.121	1995.071	872.534	-166.064	1986.352	879.577	-316.075	2021.275	468.758	-184.169	2115.840	476.702	-317.034	1956.439	68.190	-214.426	1983.702	105.360	-326.505	2077.463	962.597	-242.049	2084.352	957.033	-123.530	2070.574	968.162	-360.568	1893.844	1003.085	-197.237	1892.140	1002.514	-283.134	2034.981	467.099	-127.322	2117.054	477.230	-375.019	1986.247	471.802	-235.668	2121.348	452.016	-263.268	1951.482	65.999	-174.795	1962.452	113.728	-358.118	1962.911	82.528	-243.542	1993.368	117.216	-299.988	1902.680	1429.245	-207.678	2028.460	1343.870	-166.055	2031.363	1349.966	-270.750	2013.332	1355.679	-215.646	2085.315	1188.234	-234.956	2080.696	562.958	-52.975	2244.960	594.396	-328.573	2083.058	632.269	-113.757	2161.062	624.547	-364.072	2077.726	547.443	-145.152	2164.962	536.478	-360.029	2007.556	184.783	-83.503	2019.660	242.784	-440.277	1979.046	159.846	-155.407	2000.386	208.003	-368.991	2081.705	38.946	-205.503	2085.704	52.388	-353.436
	147	1.64167	1997.275	896.000	-236.787	1997.689	872.371	-166.029	1988.990	879.483	-316.039	2022.591	468.531	-184.350	2121.320	477.225	-316.754	1956.262	68.060	-214.526	1999.826	102.178	-326.429	2080.053	962.507	-241.957	2086.926	956.887	-123.424	2073.179	968.127	-360.491	1896.459	1002.854	-197.121	1894.876	1002.350	-282.997	2036.379	466.804	-127.524	2122.628	477.758	-374.736	1986.385	473.571	-236.368	2126.134	452.612	-263.732	1951.402	65.878	-174.882	1978.402	109.935	-358.081	1962.969	82.128	-243.595	2009.232	114.183	-299.838	1906.009	1429.152	-207.820	2031.669	1343.514	-166.292	2034.826	1349.992	-270.853	2016.672	1355.563	-215.549	2088.581	1188.093	-235.584	2082.520	562.669	-53.156	2248.973	595.956	-328.041	2085.062	632.157	-113.379	2165.103	625.840	-363.734	2078.909	547.552	-145.629	2169.572	537.661	-360.001	2008.161	184.540	-83.643	2032.031	240.519	-440.187	1979.201	159.698	-155.397	2014.130	204.673	-369.106	2081.609	39.006	-205.530	2103.433	52.432	-353.007
	148	1.65000	1999.110	895.060	-236.606	2000.337	872.253	-165.972	1991.646	879.400	-315.979	2023.974	468.311	-184.515	2126.676	477.712	-316.498	1956.166	67.968	-214.629	2015.952	99.221	-326.297	2082.674	962.439	-241.871	2089.542	956.791	-123.332	2075.805	968.087	-360.411	1899.061	1002.679	-197.035	1897.581	1002.234	-282.911	2037.824	466.514	-127.707	2128.077	478.258	-374.479	1986.098	474.979	-236.654	2131.111	453.612	-263.306	1951.384	65.795	-174.976	1994.371	106.355	-357.989	1963.048	81.978	-243.621	2024.987	111.451	-299.725	1909.598	1429.129	-208.163	2034.914	1343.709	-166.133	2038.205	1349.885	-270.938	2020.025	1355.403	-215.512	2091.831	1188.058	-235.006	2084.334	562.377	-53.350	2252.878	597.377	-327.520	2087.155	632.035	-113.721	2169.120	626.928	-363.504	2079.967	547.731	-146.239	2174.244	538.818	-359.586	2008.778	184.284	-83.775	2044.379	238.397	-440.062	1979.578	159.809	-155.496	2027.706	201.593	-368.683	2081.494	39.028	-205.597	2121.042	52.654	-352.504
